<svg width="117" height="17" viewBox="0 0 117 17" fill="none" xmlns="http://www.w3.org/2000/svg">
<path d="M5.424 12.942C5.424 13.9393 5.204 14.702 4.764 15.23C4.324 15.7433 3.686 16 2.85 16C2.058 16 1.442 15.7653 1.002 15.296C0.562 14.812 0.342 13.998 0.342 12.854V3.57C0.342 3.10067 0.400667 2.69733 0.518 2.36C0.65 2.008 0.833333 1.72933 1.068 1.524C1.30267 1.31867 1.56667 1.172 1.86 1.084C2.15333 0.981332 2.48333 0.929999 2.85 0.929999H10.066C10.9167 0.929999 11.5473 1.062 11.958 1.326C12.3833 1.59 12.596 2.06667 12.596 2.756C12.596 3.40133 12.4127 3.856 12.046 4.12C11.694 4.36933 11.1073 4.494 10.286 4.494H5.424V7.068H9.296C9.692 7.068 10.022 7.09733 10.286 7.156C10.5647 7.21467 10.7847 7.31733 10.946 7.464C11.122 7.596 11.2393 7.76467 11.298 7.97C11.3713 8.16067 11.408 8.41 11.408 8.718C11.408 9.21667 11.2247 9.576 10.858 9.796C10.4913 10.0013 9.90467 10.104 9.098 10.104H5.424V12.942ZM19.7797 12.7C19.7797 13.844 19.567 14.68 19.1417 15.208C18.7164 15.736 18.071 16 17.2057 16C16.355 16 15.7244 15.7727 15.3137 15.318C14.9177 14.8633 14.7197 14.0493 14.7197 12.876V3.57C14.7197 1.81 15.5484 0.929999 17.2057 0.929999C18.0564 0.929999 18.6944 1.09133 19.1197 1.414C19.5597 1.73667 19.7797 2.38933 19.7797 3.372V12.7ZM36.7254 13.91C36.7254 14.5553 36.5347 15.0687 36.1534 15.45C35.772 15.8167 35.2147 16 34.4814 16C34.2907 16 34.1 15.978 33.9094 15.934C33.7187 15.89 33.5134 15.8093 33.2934 15.692C33.088 15.5747 32.9047 15.4647 32.7434 15.362C32.582 15.2593 32.3767 15.1053 32.1274 14.9C31.8927 14.68 31.702 14.5113 31.5554 14.394C31.4234 14.262 31.2107 14.0567 30.9174 13.778C30.624 13.4993 30.4114 13.294 30.2794 13.162L26.2534 9.356V14.13C26.2534 14.8487 26.114 15.34 25.8354 15.604C25.5714 15.868 25.146 16 24.5594 16C23.914 16 23.4374 15.8533 23.1294 15.56C22.8214 15.2667 22.6674 14.7753 22.6674 14.086V3.46C22.6674 2.624 22.88 1.99333 23.3054 1.568C23.7307 1.14267 24.3394 0.929999 25.1314 0.929999C25.674 0.929999 26.1067 1.018 26.4294 1.194C26.7667 1.35533 27.1627 1.656 27.6174 2.096L33.1834 7.64V2.844C33.1834 2.21333 33.3374 1.744 33.6454 1.436C33.968 1.11333 34.4007 0.952 34.9434 0.952C35.574 0.952 36.0287 1.09867 36.3074 1.392C36.586 1.68533 36.7254 2.162 36.7254 2.822V13.91ZM48.2381 12.7C48.2381 13.536 48.1354 14.2033 47.9301 14.702C47.7247 15.186 47.4387 15.5233 47.0721 15.714C46.7201 15.9047 46.2507 16 45.6641 16C44.7987 16 44.1681 15.7727 43.7721 15.318C43.3907 14.8487 43.1927 14.0273 43.1781 12.854L43.1341 4.736H41.2641C40.3401 4.736 39.6434 4.58933 39.1741 4.296C38.7194 4.00267 38.4921 3.482 38.4921 2.734C38.4921 2.27933 38.5801 1.92 38.7561 1.656C38.9467 1.392 39.2254 1.20867 39.5921 1.106C39.9587 0.988665 40.4501 0.929999 41.0661 0.929999H50.4821C51.3034 0.929999 51.8974 1.07667 52.2641 1.37C52.6307 1.66333 52.8141 2.16933 52.8141 2.888C52.8141 3.372 52.7041 3.75333 52.4841 4.032C52.2787 4.296 52.0001 4.47933 51.6481 4.582C51.2961 4.68467 50.8414 4.736 50.2841 4.736H48.2381V12.7ZM63.4028 5.308C63.4028 4.604 63.1461 4.12 62.6328 3.856C62.1194 3.592 61.2541 3.46 60.0368 3.46V7.266C61.1808 7.266 62.0241 7.12667 62.5668 6.848C63.1241 6.55467 63.4028 6.04133 63.4028 5.308ZM60.0368 12.7C60.0368 14.9 59.1788 16 57.4628 16C56.5974 16 55.9594 15.7727 55.5488 15.318C55.1528 14.8487 54.9548 14.0273 54.9548 12.854V3.57C54.9548 2.71933 55.1821 2.074 55.6368 1.634C56.1061 1.17933 56.7148 0.952 57.4628 0.952H62.0828C63.8868 0.952 65.3461 1.37733 66.4608 2.228C67.5754 3.064 68.1328 4.142 68.1328 5.462C68.1328 6.45933 67.9201 7.244 67.4948 7.816C67.0841 8.37333 66.4168 8.784 65.4928 9.048C66.1968 9.092 66.8494 9.43667 67.4508 10.082C68.0521 10.7127 68.3528 11.5047 68.3528 12.458C68.3528 13.426 68.2574 14.174 68.0668 14.702C67.8908 15.2153 67.6341 15.56 67.2968 15.736C66.9594 15.912 66.4828 16 65.8668 16C65.0014 16 64.3634 15.824 63.9528 15.472C63.5568 15.1053 63.3588 14.5553 63.3588 13.822C63.3588 12.9127 63.2708 12.216 63.0948 11.732C62.9188 11.2333 62.6914 10.9107 62.4128 10.764C62.1341 10.6173 61.7454 10.544 61.2468 10.544L60.0368 10.566V12.7ZM77.3448 4.516C76.7141 4.516 76.2448 4.69933 75.9367 5.066C75.6434 5.43267 75.4968 6.08533 75.4968 7.024V9.62H79.1488V6.98C79.1488 6.364 79.0754 5.87267 78.9288 5.506C78.7821 5.12467 78.5768 4.868 78.3128 4.736C78.0634 4.58933 77.7408 4.516 77.3448 4.516ZM79.1488 12.656H75.4968V13.822C75.4968 14.57 75.2988 15.12 74.9028 15.472C74.5068 15.824 73.8248 16 72.8568 16C72.4461 16 72.1088 15.9413 71.8448 15.824C71.5808 15.7067 71.3461 15.5087 71.1408 15.23C70.9501 14.9513 70.8034 14.548 70.7008 14.02C70.6128 13.4773 70.5394 12.832 70.4808 12.084C70.4368 11.3213 70.4148 10.3607 70.4148 9.202C70.4148 8.19 70.5174 7.266 70.7228 6.43C70.9428 5.57933 71.2288 4.86067 71.5808 4.274C71.9474 3.68733 72.3581 3.174 72.8128 2.734C73.2674 2.27933 73.7588 1.92733 74.2868 1.678C74.8294 1.42867 75.3501 1.24533 75.8488 1.128C76.3621 0.995999 76.8754 0.929999 77.3888 0.929999C78.0048 0.929999 78.6134 1.018 79.2148 1.194C79.8161 1.35533 80.4248 1.64133 81.0408 2.052C81.6568 2.46267 82.1921 2.976 82.6468 3.592C83.1161 4.19333 83.4974 4.978 83.7908 5.946C84.0841 6.914 84.2308 7.99933 84.2308 9.202C84.2308 11.138 84.1574 12.5753 84.0108 13.514C83.8788 14.438 83.6441 15.0833 83.3068 15.45C82.9841 15.8167 82.4781 16 81.7888 16C80.8208 16 80.1388 15.824 79.7428 15.472C79.3468 15.12 79.1488 14.57 79.1488 13.822V12.656ZM95.5369 5.066C95.5369 4.758 95.4049 4.494 95.1409 4.274C94.8915 4.054 94.5909 3.944 94.2389 3.944C93.5349 3.944 92.9555 4.34733 92.5009 5.154C92.0462 5.946 91.8189 6.848 91.8189 7.86C91.8189 8.63733 91.9655 9.34133 92.2589 9.972C92.5522 10.588 92.9775 11.0793 93.5349 11.446C94.0922 11.8127 94.7375 11.996 95.4709 11.996C96.0135 11.996 96.5342 11.8933 97.0329 11.688C97.5315 11.468 97.9349 11.2333 98.2429 10.984C98.5509 10.72 98.8662 10.4853 99.1889 10.28C99.5262 10.06 99.8195 9.95 100.069 9.95C100.392 9.95 100.67 10.082 100.905 10.346C101.14 10.5953 101.257 10.8593 101.257 11.138C101.257 11.446 101.162 11.8053 100.971 12.216C100.795 12.6267 100.509 13.0667 100.113 13.536C99.7169 13.9907 99.2549 14.416 98.7269 14.812C98.1989 15.1933 97.5389 15.516 96.7469 15.78C95.9695 16.0293 95.1482 16.154 94.2829 16.154C93.1389 16.154 92.0755 15.9853 91.0929 15.648C90.1249 15.296 89.2815 14.8047 88.5629 14.174C87.8442 13.5287 87.2795 12.722 86.8689 11.754C86.4582 10.786 86.2529 9.70067 86.2529 8.498C86.2529 6.122 86.9642 4.24467 88.3869 2.866C89.8095 1.48733 91.6722 0.797999 93.9749 0.797999C95.1482 0.797999 96.2335 0.995999 97.2309 1.392C98.2282 1.788 99.0202 2.338 99.6069 3.042C100.194 3.746 100.487 4.516 100.487 5.352C100.487 6.32 100.164 7.2 99.5189 7.992C98.8735 8.76933 98.0375 9.158 97.0109 9.158C96.4242 9.158 95.8962 8.99667 95.4269 8.674C94.9575 8.35133 94.7229 7.88933 94.7229 7.288C94.7229 7.00933 94.8549 6.62067 95.1189 6.122C95.3975 5.62333 95.5369 5.27133 95.5369 5.066ZM113.999 8.762C114.747 8.85 115.429 9.23133 116.045 9.906C116.661 10.566 116.969 11.4167 116.969 12.458C116.969 13.47 116.896 14.2253 116.749 14.724C116.603 15.208 116.353 15.5453 116.001 15.736C115.649 15.912 115.114 16 114.395 16C113.823 16 113.347 15.9193 112.965 15.758C112.599 15.5967 112.327 15.362 112.151 15.054C111.975 14.7313 111.887 14.3207 111.887 13.822C111.887 13.1767 111.858 12.6413 111.799 12.216C111.755 11.776 111.689 11.4313 111.601 11.182C111.528 10.918 111.411 10.72 111.249 10.588C111.088 10.456 110.927 10.3753 110.765 10.346C110.619 10.302 110.413 10.28 110.149 10.28H108.983V12.722C108.983 13.8953 108.756 14.7387 108.301 15.252C107.847 15.7507 107.179 16 106.299 16C105.449 16 104.818 15.7653 104.407 15.296C104.011 14.812 103.813 14.0053 103.813 12.876V3.702C103.813 2.778 103.982 2.08867 104.319 1.634C104.671 1.16467 105.236 0.929999 106.013 0.929999C106.468 0.929999 106.842 0.959332 107.135 1.018C107.443 1.07667 107.737 1.18667 108.015 1.348C108.309 1.49467 108.521 1.73667 108.653 2.074C108.8 2.39667 108.873 2.81467 108.873 3.328C108.873 3.78267 108.866 4.296 108.851 4.868C108.851 5.42533 108.851 5.82133 108.851 6.056C108.851 6.24667 108.895 6.408 108.983 6.54C109.086 6.672 109.233 6.782 109.423 6.87C109.629 6.94333 109.878 6.98 110.171 6.98C110.802 6.98 111.22 6.73067 111.425 6.232C111.645 5.73333 111.755 4.714 111.755 3.174C111.755 2.41133 111.961 1.84667 112.371 1.48C112.782 1.11333 113.442 0.929999 114.351 0.929999C115.334 0.929999 115.994 1.12067 116.331 1.502C116.669 1.88333 116.837 2.56533 116.837 3.548C116.837 5.16133 116.551 6.41533 115.979 7.31C115.422 8.19 114.762 8.674 113.999 8.762Z" fill="#AB9CE2"/>
</svg>
